<svg width="64" height="64" viewBox="0 0 64 64" xmlns="http://www.w3.org/2000/svg">
  <defs>
    <linearGradient id="pinFront" x1="0" y1="0" x2="1" y2="1">
      <stop offset="0%" stop-color="#ff5a5f"/>
      <stop offset="100%" stop-color="#ff3f53"/>
    </linearGradient>
    <linearGradient id="pinSide" x1="0" y1="0" x2="1" y2="1">
      <stop offset="0%" stop-color="#ff2f48"/>
      <stop offset="100%" stop-color="#d92a3f"/>
    </linearGradient>
  </defs>
  <path d="M32 62c0 0 23-20.4 23-37.9C55 11.8 45 2 32 2S9 11.8 9 24.1C9 41.6 32 62 32 62z" fill="url(#pinFront)"/>
  <path d="M32 62c0 0 23-20.4 23-37.9C55 11.8 45 2 32 2c8.7 5.2 14.5 13.2 14.5 22.2C46.5 39.5 37.5 51.4 32 62z" fill="url(#pinSide)" opacity="0.55"/>
  <circle cx="32" cy="24" r="10.6" fill="#fff" fill-opacity="0.92"/>
</svg>
